<mxfile host="Electron" agent="Mozilla/5.0 (Macintosh; Intel Mac OS X 10_15_7) AppleWebKit/537.36 (KHTML, like Gecko) draw.io/27.0.9 Chrome/134.0.6998.205 Electron/35.4.0 Safari/537.36" version="27.0.9">
  <diagram name="第 1 页" id="ovoSUwQzZ4GamYV0U1oE">
    <mxGraphModel dx="1851" dy="1413" grid="0" gridSize="10" guides="1" tooltips="1" connect="1" arrows="1" fold="1" page="1" pageScale="1" pageWidth="827" pageHeight="1169" math="0" shadow="0">
      <root>
        <mxCell id="0" />
        <mxCell id="1" parent="0" />
        <mxCell id="O1DWiaECIwjqGD8SOsaT-110" value="" style="rounded=1;whiteSpace=wrap;html=1;strokeColor=default;fillColor=none;dashed=1;" vertex="1" parent="1">
          <mxGeometry x="203" y="326.5" width="169" height="655" as="geometry" />
        </mxCell>
        <mxCell id="O1DWiaECIwjqGD8SOsaT-93" value="" style="rounded=1;whiteSpace=wrap;html=1;strokeColor=default;fillColor=none;dashed=1;" vertex="1" parent="1">
          <mxGeometry x="424" y="327" width="740" height="655" as="geometry" />
        </mxCell>
        <mxCell id="O1DWiaECIwjqGD8SOsaT-47" value="" style="rounded=0;whiteSpace=wrap;html=1;fillColor=none;fontColor=#000000;strokeWidth=1;" vertex="1" parent="1">
          <mxGeometry x="450" y="424" width="170" height="462" as="geometry" />
        </mxCell>
        <mxCell id="O1DWiaECIwjqGD8SOsaT-48" value="&lt;font style=&quot;font-size: 19px;&quot;&gt;Bronze Layer&lt;/font&gt;" style="rounded=1;whiteSpace=wrap;html=1;strokeColor=#d79b00;strokeWidth=1;fillColor=#ffe6cc;fontColor=#000000;" vertex="1" parent="1">
          <mxGeometry x="480" y="384" width="110" height="60" as="geometry" />
        </mxCell>
        <mxCell id="O1DWiaECIwjqGD8SOsaT-62" value="ERP" style="image;aspect=fixed;html=1;points=[];align=center;fontSize=12;image=img/lib/azure2/general/Folder_Blank.svg;fontColor=#000000;strokeWidth=1;" vertex="1" parent="1">
          <mxGeometry x="248.69" y="690" width="77.63" height="63" as="geometry" />
        </mxCell>
        <mxCell id="O1DWiaECIwjqGD8SOsaT-69" value="" style="rounded=0;whiteSpace=wrap;html=1;fillColor=none;fontColor=#000000;strokeWidth=1;" vertex="1" parent="1">
          <mxGeometry x="710" y="424" width="170" height="460" as="geometry" />
        </mxCell>
        <mxCell id="O1DWiaECIwjqGD8SOsaT-70" value="&lt;font style=&quot;font-size: 19px;&quot;&gt;Silver Layer&lt;/font&gt;" style="rounded=1;whiteSpace=wrap;html=1;strokeColor=#666666;strokeWidth=1;fillColor=#f5f5f5;fontColor=#000000;" vertex="1" parent="1">
          <mxGeometry x="740" y="384" width="110" height="60" as="geometry" />
        </mxCell>
        <mxCell id="O1DWiaECIwjqGD8SOsaT-82" value="" style="rounded=0;whiteSpace=wrap;html=1;fillColor=none;fontColor=#000000;strokeWidth=1;strokeColor=light-dark(#FDD432,#261D00);" vertex="1" parent="1">
          <mxGeometry x="970" y="424" width="170" height="460" as="geometry" />
        </mxCell>
        <mxCell id="O1DWiaECIwjqGD8SOsaT-83" value="&lt;font style=&quot;font-size: 19px;&quot;&gt;Gold Layer&lt;/font&gt;" style="rounded=1;whiteSpace=wrap;html=1;strokeColor=light-dark(#FDD432,#261D00);strokeWidth=1;fillColor=#fff2cc;" vertex="1" parent="1">
          <mxGeometry x="1000" y="384" width="110" height="60" as="geometry" />
        </mxCell>
        <mxCell id="O1DWiaECIwjqGD8SOsaT-88" value="&lt;font style=&quot;font-size: 50px;&quot;&gt;Data Architecture&lt;/font&gt;" style="text;html=1;align=center;verticalAlign=middle;resizable=0;points=[];autosize=1;strokeColor=none;fillColor=none;" vertex="1" parent="1">
          <mxGeometry x="609" y="168" width="402" height="72" as="geometry" />
        </mxCell>
        <mxCell id="O1DWiaECIwjqGD8SOsaT-91" value="" style="shape=flexArrow;endArrow=classic;html=1;rounded=0;entryX=0;entryY=0.5;entryDx=0;entryDy=0;fillColor=#dae8fc;strokeColor=#6c8ebf;" edge="1" parent="1">
          <mxGeometry width="50" height="50" relative="1" as="geometry">
            <mxPoint x="329" y="588.5" as="sourcePoint" />
            <mxPoint x="429" y="588.5" as="targetPoint" />
          </mxGeometry>
        </mxCell>
        <mxCell id="O1DWiaECIwjqGD8SOsaT-94" value="" style="html=1;verticalLabelPosition=bottom;align=center;labelBackgroundColor=#ffffff;verticalAlign=top;strokeWidth=2;strokeColor=#d79b00;shadow=0;dashed=0;shape=mxgraph.ios7.icons.data;fillColor=#ffe6cc;" vertex="1" parent="1">
          <mxGeometry x="493.77" y="461" width="82.47" height="100" as="geometry" />
        </mxCell>
        <mxCell id="O1DWiaECIwjqGD8SOsaT-95" value="" style="html=1;verticalLabelPosition=bottom;align=center;labelBackgroundColor=#ffffff;verticalAlign=top;strokeWidth=2;strokeColor=#666666;shadow=0;dashed=0;shape=mxgraph.ios7.icons.data;fillColor=#f5f5f5;fontColor=#333333;" vertex="1" parent="1">
          <mxGeometry x="753.77" y="461" width="82.47" height="100" as="geometry" />
        </mxCell>
        <mxCell id="O1DWiaECIwjqGD8SOsaT-96" value="" style="html=1;verticalLabelPosition=bottom;align=center;labelBackgroundColor=#ffffff;verticalAlign=top;strokeWidth=2;strokeColor=#d6b656;shadow=0;dashed=0;shape=mxgraph.ios7.icons.data;fillColor=#fff2cc;" vertex="1" parent="1">
          <mxGeometry x="1013.77" y="461" width="82.47" height="100" as="geometry" />
        </mxCell>
        <mxCell id="O1DWiaECIwjqGD8SOsaT-97" value="&lt;font style=&quot;font-size: 20px;&quot;&gt;Data Warehouse&lt;/font&gt;" style="rounded=0;whiteSpace=wrap;html=1;strokeColor=none;" vertex="1" parent="1">
          <mxGeometry x="701" y="295" width="188" height="60" as="geometry" />
        </mxCell>
        <mxCell id="O1DWiaECIwjqGD8SOsaT-98" value="&lt;font style=&quot;font-size: 16px;&quot;&gt;Raw Data&lt;/font&gt;" style="text;html=1;align=center;verticalAlign=middle;whiteSpace=wrap;rounded=0;" vertex="1" parent="1">
          <mxGeometry x="491" y="570" width="88" height="30" as="geometry" />
        </mxCell>
        <mxCell id="O1DWiaECIwjqGD8SOsaT-100" value="&lt;span style=&quot;font-size: 16px;&quot;&gt;Cleaned, Standardized Data&lt;/span&gt;" style="text;html=1;align=center;verticalAlign=middle;whiteSpace=wrap;rounded=0;" vertex="1" parent="1">
          <mxGeometry x="721.5" y="574" width="147" height="30" as="geometry" />
        </mxCell>
        <mxCell id="O1DWiaECIwjqGD8SOsaT-101" value="&lt;span style=&quot;font-size: 16px;&quot;&gt;Business-Ready Data&lt;/span&gt;" style="text;html=1;align=center;verticalAlign=middle;whiteSpace=wrap;rounded=0;" vertex="1" parent="1">
          <mxGeometry x="971.75" y="574" width="166.5" height="30" as="geometry" />
        </mxCell>
        <mxCell id="O1DWiaECIwjqGD8SOsaT-102" value="" style="endArrow=none;html=1;rounded=0;exitX=0.124;exitY=0.588;exitDx=0;exitDy=0;exitPerimeter=0;entryX=0.935;entryY=0.591;entryDx=0;entryDy=0;entryPerimeter=0;fillColor=#ffe6cc;strokeColor=#d79b00;strokeWidth=2;" edge="1" parent="1">
          <mxGeometry width="50" height="50" relative="1" as="geometry">
            <mxPoint x="466.06999999999994" y="616" as="sourcePoint" />
            <mxPoint x="603.94" y="616.99" as="targetPoint" />
          </mxGeometry>
        </mxCell>
        <mxCell id="O1DWiaECIwjqGD8SOsaT-103" value="" style="endArrow=none;html=1;rounded=0;exitX=0.124;exitY=0.588;exitDx=0;exitDy=0;exitPerimeter=0;entryX=0.935;entryY=0.591;entryDx=0;entryDy=0;entryPerimeter=0;fillColor=#f5f5f5;strokeColor=#666666;strokeWidth=2;" edge="1" parent="1">
          <mxGeometry width="50" height="50" relative="1" as="geometry">
            <mxPoint x="730.0600000000001" y="617" as="sourcePoint" />
            <mxPoint x="867.9300000000002" y="617.99" as="targetPoint" />
          </mxGeometry>
        </mxCell>
        <mxCell id="O1DWiaECIwjqGD8SOsaT-104" value="" style="endArrow=none;html=1;rounded=0;exitX=0.124;exitY=0.588;exitDx=0;exitDy=0;exitPerimeter=0;entryX=0.935;entryY=0.591;entryDx=0;entryDy=0;entryPerimeter=0;fillColor=#fff2cc;strokeColor=#d6b656;strokeWidth=2;" edge="1" parent="1">
          <mxGeometry width="50" height="50" relative="1" as="geometry">
            <mxPoint x="989" y="617" as="sourcePoint" />
            <mxPoint x="1126.8700000000001" y="617.99" as="targetPoint" />
          </mxGeometry>
        </mxCell>
        <mxCell id="O1DWiaECIwjqGD8SOsaT-105" value="&lt;font&gt;&lt;b style=&quot;&quot;&gt;Object Type: &lt;/b&gt;Tables&lt;/font&gt;&lt;div&gt;&lt;font&gt;&lt;b style=&quot;&quot;&gt;&lt;br&gt;&lt;/b&gt;&lt;/font&gt;&lt;/div&gt;&lt;div&gt;&lt;font&gt;&lt;b style=&quot;&quot;&gt;Load:&lt;/b&gt;&lt;/font&gt;&lt;/div&gt;&lt;div&gt;&lt;ul&gt;&lt;li&gt;&lt;span style=&quot;background-color: transparent; color: light-dark(rgb(0, 0, 0), rgb(255, 255, 255));&quot;&gt;Batch Processing&lt;/span&gt;&lt;/li&gt;&lt;li&gt;&lt;span style=&quot;background-color: transparent; color: light-dark(rgb(0, 0, 0), rgb(255, 255, 255));&quot;&gt;Full Load&lt;/span&gt;&lt;/li&gt;&lt;li&gt;&lt;span style=&quot;background-color: transparent; color: light-dark(rgb(0, 0, 0), rgb(255, 255, 255));&quot;&gt;Truncate &amp;amp; Insert&lt;/span&gt;&lt;/li&gt;&lt;/ul&gt;&lt;/div&gt;" style="text;html=1;align=left;verticalAlign=top;whiteSpace=wrap;rounded=0;" vertex="1" parent="1">
          <mxGeometry x="466" y="626" width="140" height="119" as="geometry" />
        </mxCell>
        <mxCell id="O1DWiaECIwjqGD8SOsaT-107" value="&lt;font&gt;&lt;b style=&quot;&quot;&gt;Object Type: &lt;/b&gt;Tables&lt;/font&gt;&lt;div&gt;&lt;font&gt;&lt;b style=&quot;&quot;&gt;&lt;br&gt;&lt;/b&gt;&lt;/font&gt;&lt;/div&gt;&lt;div&gt;&lt;font&gt;&lt;b style=&quot;&quot;&gt;Load:&lt;/b&gt;&lt;/font&gt;&lt;/div&gt;&lt;div&gt;&lt;ul&gt;&lt;li&gt;&lt;span style=&quot;background-color: transparent; color: light-dark(rgb(0, 0, 0), rgb(255, 255, 255));&quot;&gt;Batch Processing&lt;/span&gt;&lt;/li&gt;&lt;li&gt;&lt;span style=&quot;background-color: transparent; color: light-dark(rgb(0, 0, 0), rgb(255, 255, 255));&quot;&gt;Full Load&lt;/span&gt;&lt;/li&gt;&lt;li&gt;&lt;span style=&quot;background-color: transparent; color: light-dark(rgb(0, 0, 0), rgb(255, 255, 255));&quot;&gt;Truncate &amp;amp; Insert&lt;/span&gt;&lt;/li&gt;&lt;/ul&gt;&lt;div&gt;&lt;b&gt;Transformations:&lt;/b&gt;&lt;/div&gt;&lt;/div&gt;&lt;div&gt;&lt;ul&gt;&lt;li&gt;Data Cleansing&lt;/li&gt;&lt;li&gt;Data Standrization&lt;/li&gt;&lt;li&gt;Data Normalization&lt;/li&gt;&lt;li&gt;Derived Columns&lt;/li&gt;&lt;li&gt;Data Enrichment&lt;/li&gt;&lt;/ul&gt;&lt;/div&gt;" style="text;html=1;align=left;verticalAlign=top;whiteSpace=wrap;rounded=0;labelPosition=center;verticalLabelPosition=middle;" vertex="1" parent="1">
          <mxGeometry x="724" y="626" width="140" height="248" as="geometry" />
        </mxCell>
        <mxCell id="O1DWiaECIwjqGD8SOsaT-108" value="&lt;font&gt;&lt;b style=&quot;&quot;&gt;Object Type: &lt;/b&gt;Views&lt;/font&gt;&lt;div&gt;&lt;br&gt;&lt;/div&gt;&lt;div&gt;&lt;div&gt;&lt;b&gt;Transformations:&lt;/b&gt;&lt;/div&gt;&lt;/div&gt;&lt;div&gt;&lt;ul&gt;&lt;li&gt;Data Intergrations&lt;/li&gt;&lt;li&gt;Aggregations&lt;/li&gt;&lt;li&gt;Business Logics&lt;/li&gt;&lt;/ul&gt;&lt;/div&gt;&lt;div&gt;&lt;b&gt;Data Model:&lt;/b&gt;&lt;/div&gt;&lt;div&gt;&lt;ul&gt;&lt;li&gt;Star Schema&lt;/li&gt;&lt;li&gt;Flat Table&lt;/li&gt;&lt;li&gt;Aggregated Table&lt;/li&gt;&lt;/ul&gt;&lt;/div&gt;" style="text;html=1;align=left;verticalAlign=top;whiteSpace=wrap;rounded=0;labelPosition=center;verticalLabelPosition=middle;" vertex="1" parent="1">
          <mxGeometry x="985" y="626" width="140" height="248" as="geometry" />
        </mxCell>
        <mxCell id="O1DWiaECIwjqGD8SOsaT-111" value="CRM" style="image;aspect=fixed;html=1;points=[];align=center;fontSize=12;image=img/lib/azure2/general/Folder_Blank.svg;fontColor=#000000;strokeWidth=1;" vertex="1" parent="1">
          <mxGeometry x="248.69" y="473" width="77.63" height="63" as="geometry" />
        </mxCell>
        <mxCell id="O1DWiaECIwjqGD8SOsaT-113" value="&lt;font style=&quot;font-size: 20px;&quot;&gt;Sources&lt;/font&gt;" style="rounded=0;whiteSpace=wrap;html=1;strokeColor=none;" vertex="1" parent="1">
          <mxGeometry x="231.51" y="295" width="112" height="60" as="geometry" />
        </mxCell>
        <mxCell id="O1DWiaECIwjqGD8SOsaT-114" value="" style="shape=flexArrow;endArrow=classic;html=1;rounded=0;entryX=0;entryY=0.5;entryDx=0;entryDy=0;fillColor=#dae8fc;strokeColor=#6c8ebf;" edge="1" parent="1">
          <mxGeometry width="50" height="50" relative="1" as="geometry">
            <mxPoint x="615" y="588.47" as="sourcePoint" />
            <mxPoint x="715" y="588.47" as="targetPoint" />
          </mxGeometry>
        </mxCell>
        <mxCell id="O1DWiaECIwjqGD8SOsaT-115" value="" style="shape=flexArrow;endArrow=classic;html=1;rounded=0;entryX=0;entryY=0.5;entryDx=0;entryDy=0;fillColor=#dae8fc;strokeColor=#6c8ebf;" edge="1" parent="1">
          <mxGeometry width="50" height="50" relative="1" as="geometry">
            <mxPoint x="874" y="588.47" as="sourcePoint" />
            <mxPoint x="974" y="588.47" as="targetPoint" />
          </mxGeometry>
        </mxCell>
        <mxCell id="O1DWiaECIwjqGD8SOsaT-116" value="" style="shape=flexArrow;endArrow=classic;html=1;rounded=0;entryX=0;entryY=0.5;entryDx=0;entryDy=0;fillColor=#dae8fc;strokeColor=#6c8ebf;" edge="1" parent="1">
          <mxGeometry width="50" height="50" relative="1" as="geometry">
            <mxPoint x="1154" y="588.47" as="sourcePoint" />
            <mxPoint x="1254" y="588.47" as="targetPoint" />
          </mxGeometry>
        </mxCell>
        <mxCell id="O1DWiaECIwjqGD8SOsaT-117" value="" style="rounded=1;whiteSpace=wrap;html=1;strokeColor=default;fillColor=none;dashed=1;" vertex="1" parent="1">
          <mxGeometry x="1261" y="326.5" width="169" height="655" as="geometry" />
        </mxCell>
        <mxCell id="O1DWiaECIwjqGD8SOsaT-118" value="&lt;font style=&quot;font-size: 20px;&quot;&gt;Consume&lt;/font&gt;" style="rounded=0;whiteSpace=wrap;html=1;strokeColor=none;" vertex="1" parent="1">
          <mxGeometry x="1289.51" y="295" width="112" height="60" as="geometry" />
        </mxCell>
        <mxCell id="O1DWiaECIwjqGD8SOsaT-119" value="" style="points=[];aspect=fixed;html=1;align=center;shadow=0;dashed=0;fillColor=#FF6A00;strokeColor=none;shape=mxgraph.alibaba_cloud.machine_learning;" vertex="1" parent="1">
          <mxGeometry x="1301.1399999999999" y="793.9" width="89.56" height="90.1" as="geometry" />
        </mxCell>
        <mxCell id="O1DWiaECIwjqGD8SOsaT-121" value="" style="image;aspect=fixed;html=1;points=[];align=center;fontSize=12;image=img/lib/azure2/general/Dashboard2.svg;" vertex="1" parent="1">
          <mxGeometry x="1300.62" y="406" width="89.25" height="63" as="geometry" />
        </mxCell>
        <mxCell id="O1DWiaECIwjqGD8SOsaT-122" value="" style="outlineConnect=0;dashed=0;verticalLabelPosition=bottom;verticalAlign=top;align=center;html=1;shape=mxgraph.aws3.mysql_db_instance;fillColor=#2E73B8;gradientColor=none;" vertex="1" parent="1">
          <mxGeometry x="1300.62" y="583" width="89.77" height="96.5" as="geometry" />
        </mxCell>
        <mxCell id="O1DWiaECIwjqGD8SOsaT-123" value="&lt;font style=&quot;font-size: 16px;&quot;&gt;BI &amp;amp; Reporting&lt;/font&gt;" style="text;html=1;align=center;verticalAlign=middle;whiteSpace=wrap;rounded=0;" vertex="1" parent="1">
          <mxGeometry x="1289.51" y="469" width="109.63" height="30" as="geometry" />
        </mxCell>
        <mxCell id="O1DWiaECIwjqGD8SOsaT-124" value="&lt;font style=&quot;font-size: 16px;&quot;&gt;Ad-Hoc&lt;/font&gt;&lt;div&gt;&lt;font style=&quot;font-size: 16px;&quot;&gt;SQL Queries&lt;/font&gt;&lt;/div&gt;" style="text;html=1;align=center;verticalAlign=middle;whiteSpace=wrap;rounded=0;" vertex="1" parent="1">
          <mxGeometry x="1291.88" y="688" width="109.63" height="30" as="geometry" />
        </mxCell>
        <mxCell id="O1DWiaECIwjqGD8SOsaT-125" value="&lt;font style=&quot;font-size: 16px;&quot;&gt;Machine Learning&lt;/font&gt;" style="text;html=1;align=center;verticalAlign=middle;whiteSpace=wrap;rounded=0;" vertex="1" parent="1">
          <mxGeometry x="1272.8500000000001" y="889" width="145.31" height="30" as="geometry" />
        </mxCell>
        <mxCell id="O1DWiaECIwjqGD8SOsaT-126" value="" style="endArrow=none;html=1;rounded=0;exitX=0.124;exitY=0.588;exitDx=0;exitDy=0;exitPerimeter=0;entryX=0.935;entryY=0.591;entryDx=0;entryDy=0;entryPerimeter=0;fillColor=#ffe6cc;strokeColor=#000000;strokeWidth=2;" edge="1" parent="1">
          <mxGeometry width="50" height="50" relative="1" as="geometry">
            <mxPoint x="218.56" y="824" as="sourcePoint" />
            <mxPoint x="356.4300000000001" y="824.99" as="targetPoint" />
          </mxGeometry>
        </mxCell>
        <mxCell id="O1DWiaECIwjqGD8SOsaT-127" value="&lt;font&gt;&lt;b style=&quot;&quot;&gt;Object Type: &lt;/b&gt;CSV Files&lt;/font&gt;&lt;div&gt;&lt;b style=&quot;background-color: transparent; color: light-dark(rgb(0, 0, 0), rgb(255, 255, 255));&quot;&gt;&lt;br&gt;&lt;/b&gt;&lt;/div&gt;&lt;div&gt;&lt;b style=&quot;background-color: transparent; color: light-dark(rgb(0, 0, 0), rgb(255, 255, 255));&quot;&gt;Interface: &lt;/b&gt;&lt;span style=&quot;background-color: transparent; color: light-dark(rgb(0, 0, 0), rgb(255, 255, 255));&quot;&gt;Files in Folders&lt;/span&gt;&lt;/div&gt;" style="text;html=1;align=left;verticalAlign=top;whiteSpace=wrap;rounded=0;" vertex="1" parent="1">
          <mxGeometry x="217.51" y="842" width="140" height="119" as="geometry" />
        </mxCell>
      </root>
    </mxGraphModel>
  </diagram>
</mxfile>
